# xmcd
#
# Track frame offsets:
#	150
#	20967
#	38550
#	56258
#
# Disc length: 997 seconds
#
# Revision: 1
# Processed by: cddbd v1.5.2PL0 Copyright (c) Steve Scherf et al.
# Submitted via: audiograbber 1.83.01
#
DISCID=2a03e304
DTITLE=Gloria Estefan - Esta Navidad está de Estreno
DYEAR=1998
DGENRE=Xmas
TTITLE0=Silent Night
TTITLE1=Arbolito de Navidad
TTITLE2=Let it Snow, Let it Snow, Let it Snow
TTITLE3=This Christmas
EXTD=
EXTT0=
EXTT1=
EXTT2=
EXTT3=
PLAYORDER=
